<?xml version="1.0" encoding="utf-8"?>
<!-- Generator: Adobe Illustrator 19.1.0, SVG Export Plug-In . SVG Version: 6.00 Build 0)  -->
<svg version="1.1" id="Layer_1" xmlns="http://www.w3.org/2000/svg" xmlns:xlink="http://www.w3.org/1999/xlink" x="0px" y="0px"
	 viewBox="0 0 100 100" style="enable-background:new 0 0 100 100;" xml:space="preserve">
<style type="text/css">
	.st0{fill-rule:evenodd;clip-rule:evenodd;fill:#E21F26;}
	.st1{fill-rule:evenodd;clip-rule:evenodd;fill:#E67025;}
</style>
<g>
	<path class="st0" d="M27.4,58.6c-1.5,0-2.2,0.8-2.2,2l0,4.5H70l-0.4-9.8h0h0v0c-0.6,0-1-1-1.3-2.7c-0.2-1.4-0.4-3.4-0.5-5.6
		c0-0.4,0-0.8,0-1.2c0-1.9,0-3.6,0.1-4.8c0.2-1.5,0.5-2.3,1-2.4c-0.1-1.4-0.8-2.2-2.3-2.2l-33.6-0.1v-0.7c0.4-0.2,0.7-0.6,0.7-1.1
		v-3.2c0-0.5-0.3-0.9-0.7-1.1v-1h-1.2v1c-0.4,0.2-0.7,0.6-0.7,1.1v3.2c0,0.5,0.3,0.9,0.7,1.1v0.7l-4.3,0c-1.8,0.1-2.2,1.1-1.9,2.2
		c1,3.9,1.9,7.7,2.9,11.6c0.3,1.1,1.4,2.1,2.9,2l1.6,0v4.2l0.7,1.4l0.7-1.4v-4.2l2.4,0c0.6,0,1.1-0.3,1.5-0.9
		c0.5-0.7,0.6-1.4,0.7-2.2c0.2-1.6,0.5-3,2.5-3c3.3,0,6.6,0,9.8-0.1c1.4,0,1.8,0.8,1.9,2c0,3,0,6.1,0,9.1c0,1.1-0.4,1.5-1.3,1.4
		C43.8,58.7,35.6,58.6,27.4,58.6z"/>
	<g>
		<path class="st1" d="M70.3,45.9l2.8,0c0.1,1.8,0.2,3.5,0.3,5.3l1,0c0.2-0.6,0.8-0.9,1.5-1l4.8-0.1c0.7,0,1.2,0.3,1.5,0.9l0.9,0
			c0.3-0.7,1-1.2,1.8-1.2c1.1,0,2.1,0.8,2.1,1.9c0,1.1-0.8,2-2,2c-0.9,0-1.8-0.6-2-1.4l-0.8,0c-0.2,0.5-0.8,0.9-1.4,0.9L76,53.3
			c-0.7,0-1.3-0.4-1.6-1l-2.3,0l-0.3-5.2l-1.4,0c0.2,4.1-0.1,7.3-0.7,7.3c-0.5,0-1.1-3.3-1.3-7.5c-0.2-4.1,0.1-7.5,0.7-7.5
			C69.6,39.5,70.1,42.3,70.3,45.9z"/>
		<path class="st1" d="M15.4,65.7h64.5c1.3,0,2.4,1.1,2.4,2.4l0,0c0,1.3-1.1,2.4-2.4,2.4H15.4c-1.3,0-2.5-1.1-2.5-2.4l0,0
			C12.9,66.8,14,65.7,15.4,65.7z"/>
	</g>
</g>
</svg>
