<?xml version="1.0" encoding="utf-8"?>
<!-- Generator: Adobe Illustrator 19.1.0, SVG Export Plug-In . SVG Version: 6.00 Build 0)  -->
<svg version="1.1" id="Layer_1" xmlns="http://www.w3.org/2000/svg" xmlns:xlink="http://www.w3.org/1999/xlink" x="0px" y="0px"
	 viewBox="0 0 100 100" style="enable-background:new 0 0 100 100;" xml:space="preserve">
<style type="text/css">
	.st0{fill-rule:evenodd;clip-rule:evenodd;fill:#E21F26;}
	.st1{fill-rule:evenodd;clip-rule:evenodd;fill:#E67025;}
</style>
<g>
	<polygon class="st0" points="30.4,66.2 30.3,52.6 69.7,52.6 69.6,66.2 	"/>
	<g>
		<path class="st1" d="M30.5,51.7c2-3.4,9.1-4.6,12.6-5.5c2.9-0.6,4.6-1.5,4.7-3.5c-0.1-3.7,0.5-7.6-1-11c-1.3-3.8-1.6-7.5-1.4-11.3
			c0.1-2,0.4-3.8,1.1-5.2c0.9-1.8,2.5-2.7,4.5-2.2c4.7,1.1,4.2,13.9,2.4,17.4c-2.1,4.8-1.7,7.1-1.7,12.1c0,1.6,1.2,3,2.6,3.3
			c3.9,0.6,12.9,2,15,5.8H30.5L30.5,51.7z M50.3,20.2c1,0,1.8-1.1,1.8-2.4c0-1.3-0.8-2.4-1.8-2.4c-1,0-1.8,1.1-1.8,2.4
			C48.5,19.1,49.3,20.2,50.3,20.2z"/>
		<g>
			<polygon class="st1" points="34.8,67 35,83.9 35.8,87.1 36.5,84 36.5,67 			"/>
			<polygon class="st1" points="38.6,67 38.9,83.9 39.6,87.1 40.3,84 40.3,67 			"/>
			<polygon class="st1" points="42.4,67 42.7,83.9 43.5,87.1 44.1,84 44.1,67 			"/>
			<polygon class="st1" points="46.3,67 46.5,83.9 47.3,87.1 48,84 48,67 			"/>
			<polygon class="st1" points="50.1,67 50.4,83.9 51.1,87.1 51.8,84 51.8,67 			"/>
			<polygon class="st1" points="53.9,67 54.2,83.9 55,87.1 55.6,84 55.6,67 			"/>
			<polygon class="st1" points="57.8,67 58,83.9 58.8,87.1 59.5,84 59.4,67 			"/>
			<polygon class="st1" points="59.7,67 59.9,83.9 60.7,87.1 61.4,84 61.4,67 			"/>
			<polygon class="st1" points="63.5,67 63.8,83.9 64.5,87.1 65.2,84 65.2,67 			"/>
			<polygon class="st1" points="67.3,67 67.6,83.9 68.4,87.1 69,84 69,67 			"/>
			<polygon class="st1" points="31,67 31.2,83.9 32,87.1 32.7,84 32.6,67 			"/>
			<polygon class="st1" points="32.9,67 33.1,83.9 33.9,87.1 34.6,84 34.5,67 			"/>
			<polygon class="st1" points="36.7,67 36.9,83.9 37.7,87.1 38.4,84 38.4,67 			"/>
			<polygon class="st1" points="40.5,67 40.8,83.9 41.6,87.1 42.2,84 42.2,67 			"/>
			<polygon class="st1" points="44.4,67 44.6,83.9 45.4,87.1 46.1,84 46,67 			"/>
			<polygon class="st1" points="48.2,67 48.4,83.9 49.2,87.1 49.9,84 49.9,67 			"/>
			<polygon class="st1" points="52,67 52.3,83.9 53.1,87.1 53.7,84 53.7,67 			"/>
			<polygon class="st1" points="55.9,67 56.1,83.9 56.9,87.1 57.6,84 57.5,67 			"/>
			<polygon class="st1" points="61.6,67 61.8,83.9 62.6,87.1 63.3,84 63.3,67 			"/>
			<polygon class="st1" points="65.4,67 65.7,83.9 66.5,87.1 67.1,84 67.1,67 			"/>
		</g>
	</g>
</g>
</svg>
