<?xml version="1.0" encoding="utf-8"?>
<!-- Generator: Adobe Illustrator 19.1.0, SVG Export Plug-In . SVG Version: 6.00 Build 0)  -->
<svg version="1.1" id="Layer_1" xmlns="http://www.w3.org/2000/svg" xmlns:xlink="http://www.w3.org/1999/xlink" x="0px" y="0px"
	 viewBox="0 0 100 100" style="enable-background:new 0 0 100 100;" xml:space="preserve">
<style type="text/css">
	.st0{fill-rule:evenodd;clip-rule:evenodd;fill:#E21F26;}
</style>
<path class="st0" d="M28.1,29.5h6.8c-0.2-0.7-0.3-1.5-0.3-2.2c0-6.1,6.9-11,15.3-11c8.5,0,15.3,4.9,15.3,11c0,0.8-0.1,1.5-0.3,2.2h7
	v54.2H28.1V29.5L28.1,29.5z M49.7,43.2c-0.9,0-1.6,0.7-1.6,1.6c0,0.9,0.7,1.6,1.6,1.6c0.9,0,1.6-0.7,1.6-1.6
	C51.3,43.9,50.6,43.2,49.7,43.2L49.7,43.2z M49.7,49c-0.9,0-1.6,0.7-1.6,1.6c0,0.9,0.7,1.6,1.6,1.6c0.9,0,1.6-0.7,1.6-1.6
	C51.3,49.7,50.6,49,49.7,49L49.7,49z M49.7,54.8c-0.9,0-1.6,0.7-1.6,1.6c0,0.9,0.7,1.6,1.6,1.6c0.9,0,1.6-0.7,1.6-1.6
	C51.3,55.5,50.6,54.8,49.7,54.8L49.7,54.8z M49.7,60.6c-0.9,0-1.6,0.7-1.6,1.6c0,0.9,0.7,1.6,1.6,1.6c0.9,0,1.6-0.7,1.6-1.6
	C51.3,61.3,50.6,60.6,49.7,60.6L49.7,60.6z M55.5,65.4V41h-2v24.4h-7.1V41h-2v26.4h0.9h1.1h7.1h2V65.4L55.5,65.4z M37.1,29.5h0.4
	l4.8,10.1l4.7-9.5c-4.6-0.5-8-2.1-8-4.1c0-2.3,4.8-4.3,10.8-4.3c6,0,10.8,1.9,10.8,4.3c0,2-3.4,3.6-8,4.1l4.6,9.5l5-10.1h0.7
	c0.2-0.7,0.4-1.5,0.4-2.2c0-5.2-5.9-9.5-13.2-9.5c-7.3,0-13.2,4.2-13.2,9.5C36.7,28,36.8,28.8,37.1,29.5z"/>
</svg>
