<?xml version="1.0" encoding="utf-8"?>
<!-- Generator: Adobe Illustrator 19.1.0, SVG Export Plug-In . SVG Version: 6.00 Build 0)  -->
<svg version="1.1" id="Layer_1" xmlns="http://www.w3.org/2000/svg" xmlns:xlink="http://www.w3.org/1999/xlink" x="0px" y="0px"
	 viewBox="0 0 100 100" style="enable-background:new 0 0 100 100;" xml:space="preserve">
<style type="text/css">
	.st0{fill-rule:evenodd;clip-rule:evenodd;fill:#E67025;}
</style>
<path class="st0" d="M74.4,33.4h-1.2h-0.8h-2.1H52.6l13.6-11.5c0.5,0.4,1.1,0.6,1.7,0.6c1,0,1.9-0.5,2.4-1.3c0.3-0.4,0.4-1,0.4-1.5
	c0-0.6-0.2-1.1-0.4-1.5c-0.5-0.8-1.4-1.3-2.4-1.3c-1.6,0-2.9,1.3-2.9,2.9c0,0.7,0.3,1.4,0.7,1.9l-15.5,8.7l-6.2-3.8l-7.6-4.7
	c0.5-0.5,0.8-1.2,0.8-2c0-1.6-1.3-2.9-2.9-2.9c-1.6,0-2.9,1.3-2.9,2.9c0,1.6,1.3,2.9,2.9,2.9c0.5,0,1-0.1,1.4-0.4l8.2,8.3l2.9,3
	h-2.9H19.8v42.1h24.3h26.2h2.1h0.8h1.2h5.7V33.4H74.4z M72.5,39.7c0.3,0.1,0.5,0.1,0.8,0.2c0.4,0.2,0.8,0.4,1.2,0.6
	c1.2,0.8,2.1,2.2,2.3,3.7L74.4,42l-1.2-1.2L72.5,40l-0.3-0.3C72.3,39.7,72.4,39.7,72.5,39.7z M63,68.9H44.2H25.4v-30h18.8H63V68.9z
	 M70.4,50.2c-2.2-0.4-4-2.2-4.3-4.5l4.3,4.3l0.3,0.3C70.6,50.3,70.5,50.3,70.4,50.2z M72.5,50.2c-0.2,0-0.4,0.1-0.6,0.1l-1.5-1.5
	l-4.3-4.3c0-0.3,0.1-0.6,0.1-0.9l4.2,4.2l2.1,2.1l0.3,0.3C72.6,50.2,72.6,50.2,72.5,50.2z M73.6,49.9l-0.4-0.4l-0.8-0.8l-2.1-2.1
	l-3.9-3.9c0.1-0.2,0.2-0.5,0.4-0.7l3.5,3.5l2.1,2.1l0.8,0.8l1.1,1.1C74.1,49.6,73.8,49.8,73.6,49.9z M74.9,49l-0.5-0.5l-1.2-1.2
	l-0.8-0.8l-2.1-2.1l-3-3c0.2-0.2,0.3-0.4,0.5-0.5l2.5,2.5l2.1,2.1l0.8,0.8l1.2,1.2l1,1C75.3,48.7,75.1,48.9,74.9,49z M75.9,47.8
	l-1.5-1.5l-1.2-1.2l-0.8-0.8l-2.1-2.1l-1.8-1.8c0.2-0.1,0.4-0.3,0.7-0.4l1.2,1.2l2.1,2.1l0.8,0.8l1.2,1.2l1.9,1.9
	C76.2,47.4,76.1,47.6,75.9,47.8z M76.6,46.3l-2.2-2.2l-1.2-1.2l-0.8-0.8l-2.1-2.1l-0.3-0.3c0.1,0,0.2-0.1,0.3-0.1
	c0.2,0,0.4-0.1,0.6-0.1l1.5,1.5l0.8,0.8l1.2,1.2l2.3,2.3C76.7,45.7,76.7,46,76.6,46.3z"/>
</svg>
