<?xml version="1.0" encoding="utf-8"?>
<!-- Generator: Adobe Illustrator 19.1.0, SVG Export Plug-In . SVG Version: 6.00 Build 0)  -->
<svg version="1.1" id="Layer_1" xmlns="http://www.w3.org/2000/svg" xmlns:xlink="http://www.w3.org/1999/xlink" x="0px" y="0px"
	 viewBox="0 0 100 100" style="enable-background:new 0 0 100 100;" xml:space="preserve">
<style type="text/css">
	.st0{fill-rule:evenodd;clip-rule:evenodd;fill:#E67025;}
</style>
<path class="st0" d="M18.6,26.7h62.9c2.5,0,4.5,2,4.5,4.5v0.4c0,2.5-2,4.5-4.5,4.5H59.1l-7.7,16.2l9,15.6c1.6,0.4,2.8,1.4,2.8,2.7
	c0,1.6-1.8,2.8-4.1,2.8c-2.3,0-4.1-1.3-4.1-2.8c0-0.8,0.5-1.5,1.3-2.1l-6.9-12l-5.7,12c0.8,0.5,1.2,1.2,1.2,2c0,1.6-1.8,2.8-4.1,2.8
	c-2.3,0-4.1-1.3-4.1-2.8c0-1.3,1.3-2.4,3-2.7l7.3-15.4L37.6,36H18.6c-2.5,0-4.5-2-4.5-4.5v-0.4C14.1,28.7,16.1,26.7,18.6,26.7
	L18.6,26.7z M49.1,48.2L54.8,36H42.1L49.1,48.2z"/>
</svg>
