<?xml version="1.0" encoding="utf-8"?>
<!-- Generator: Adobe Illustrator 19.1.0, SVG Export Plug-In . SVG Version: 6.00 Build 0)  -->
<svg version="1.1" id="Layer_1" xmlns="http://www.w3.org/2000/svg" xmlns:xlink="http://www.w3.org/1999/xlink" x="0px" y="0px"
	 viewBox="0 0 100 100" style="enable-background:new 0 0 100 100;" xml:space="preserve">
<style type="text/css">
	.st0{fill:#E21F26;}
	.st1{fill:#E67025;}
</style>
<g>
	<g>
		<path class="st0" d="M40.3,57c-2.2,0-4.1,1.8-4.1,4.1c0,2.2,1.8,4.1,4.1,4.1c2.2,0,4.1-1.8,4.1-4.1C44.4,58.9,42.6,57,40.3,57z"/>
		<path class="st0" d="M62.2,63.2l-3.6-0.9c0-0.4,0-0.9,0-1.3c0-1.4-0.2-2.7-0.4-4l3.4-0.7c0.8-1.3,0.2-2.8-0.9-3.5l-3.6,0.8
			c-0.7-1.6-1.7-3.1-2.8-4.5L57,47c0.1-1.5-1.1-2.5-2.4-2.7l-2.8,2.4c-1.4-1.1-2.9-2-4.6-2.7l1.4-3.1c-0.6-1.4-2.2-1.7-3.3-1.3
			L44,43.1c-1.1-0.2-2.3-0.3-3.5-0.3h-0.1c-0.6,0-1.1,0-1.6,0.1l-0.3-3.4c-1.2-0.9-2.7-0.5-3.5,0.4l0.4,3.7
			c-1.7,0.5-3.3,1.3-4.8,2.2l-1.8-2.9c-1.5-0.3-2.6,0.8-2.9,2l2,3.1c-1.3,1.2-2.3,2.6-3.2,4.2l-3-1.7c-1.4,0.4-2,2-1.7,3.1l3.2,1.8
			c-0.5,1.6-0.8,3.4-0.9,5.2l-3.4-0.2c-1.1,1.1-0.8,2.6,0,3.6l3.7,0.1c0.3,1.8,0.9,3.5,1.6,5l-3.1,1.5c-0.5,1.4,0.5,2.7,1.7,3.1
			L26,72c1.1,1.4,2.4,2.6,3.8,3.7l-2.1,2.7c0.3,1.5,1.7,2.2,2.9,2l2.1-3c1.6,0.7,3.3,1.2,5.1,1.5l-0.6,3.4c0.8,1,2,1.1,3,0.7
			c0.2-0.1,0.4-0.2,0.5-0.3l0.5-3.7c1.8-0.1,3.5-0.4,5.2-1l1.1,3.3c1.4,0.6,2.8-0.2,3.3-1.3l-1.2-3.5c1.5-0.9,2.9-2,4.1-3.3l2.5,2.4
			c1.5-0.1,2.4-1.4,2.4-2.7l-2.7-2.5c0.9-1.5,1.6-3.1,2.1-4.8l3.3,1C62.6,65.9,62.7,64.3,62.2,63.2z M40.5,70.1h-0.1
			c-5-0.1-9-4.1-9-9.1c0-5,4-9.1,9-9.1l0.1,0c5,0,9.1,4.1,9.1,9.1C49.6,66,45.5,70.1,40.5,70.1z"/>
	</g>
	<g>
		<path class="st1" d="M66.6,30c-0.3-0.1-0.7-0.2-1.1-0.2c-1.2,0-2.3,0.7-2.7,1.9c-0.6,1.5,0.2,3.2,1.7,3.8c0.3,0.1,0.7,0.2,1.1,0.2
			c1.2,0,2.3-0.7,2.7-1.9C68.9,32.3,68.1,30.6,66.6,30z"/>
		<path class="st1" d="M81.5,32.5l-2.6-0.4c-0.1-1.3-0.3-2.6-0.7-3.8l2.4-0.8c0.5-1-0.1-2-0.9-2.4l-2.5,0.9c-0.6-1.1-1.4-2.1-2.4-3
			l1.7-1.8c-0.1-1.1-1-1.7-1.9-1.7l-1.8,1.9c-0.7-0.4-1.5-0.8-2.3-1.1c-0.4-0.2-0.8-0.3-1.2-0.4l0.7-2.4c-0.6-0.9-1.7-1-2.5-0.6
			l-0.7,2.6c-0.4,0-0.8,0-1.2,0c-0.9,0-1.8,0.1-2.6,0.3l-0.5-2.4c-0.9-0.6-2-0.1-2.5,0.6l0.6,2.6c-1.2,0.5-2.3,1.2-3.3,2l-1.5-1.9
			c-1.1-0.1-1.8,0.8-1.9,1.7l1.7,2c-0.8,1-1.5,2.1-2,3.3l-2.3-1c-1,0.4-1.2,1.6-0.9,2.4l2.5,1c-0.3,1.3-0.3,2.6-0.2,3.8L50.1,34
			c-0.7,0.9-0.4,2,0.3,2.6l2.7-0.3c0.4,1.2,0.9,2.4,1.6,3.5l-2.1,1.3c-0.2,1.1,0.6,1.9,1.4,2.1l2.2-1.5c0.9,0.9,1.9,1.7,3,2.3
			L58,46.2c0.3,1,1.4,1.4,2.3,1.2l1.3-2.3c1.2,0.4,2.5,0.6,3.8,0.7l-0.1,2.5c0.1,0.1,0.2,0.2,0.4,0.3c0.7,0.4,1.6,0.2,2.2-0.3
			l0.1-2.7c1.3-0.2,2.5-0.6,3.6-1.2l1,2.3c1,0.3,2-0.3,2.3-1.2l-1.2-2.4c1-0.8,1.9-1.7,2.7-2.7l2,1.5c1.1-0.2,1.6-1.2,1.5-2.1
			l-2.2-1.6c0.1-0.3,0.3-0.6,0.4-0.9c0.4-0.9,0.6-1.9,0.7-2.8l2.4,0.4C82,34.4,82,33.2,81.5,32.5z M71.9,35c-1,2.7-3.6,4.3-6.3,4.2
			c-0.8,0-1.5-0.2-2.3-0.4c-3.4-1.3-5.1-5.2-3.8-8.6c1-2.6,3.4-4.2,6-4.2c0.8,0,1.7,0.1,2.5,0.4C71.5,27.8,73.2,31.6,71.9,35z"/>
	</g>
</g>
</svg>
