<?xml version="1.0" encoding="utf-8"?>
<!-- Generator: Adobe Illustrator 19.1.0, SVG Export Plug-In . SVG Version: 6.00 Build 0)  -->
<svg version="1.1" id="Layer_1" xmlns="http://www.w3.org/2000/svg" xmlns:xlink="http://www.w3.org/1999/xlink" x="0px" y="0px"
	 viewBox="0 0 100 70" style="enable-background:new 0 0 100 70;" xml:space="preserve">
<style type="text/css">
	.st0{fill-rule:evenodd;clip-rule:evenodd;fill:#FFFFFF;}
	.st1{fill:#FFFFFF;}
	.st2{font-family:'AirstreamNF';}
	.st3{font-size:10.7328px;}
</style>
<g id="Shape_27">
	<g>
		<path class="st0" d="M81.4,36.9c-1.6-1.3-1.6-2.5,0.1-3.7c1.7-1.2,1.6-2.2-0.3-3.1c-1.8-0.9-2.1-2.1-0.7-3.6
			c1.4-1.5,1.1-2.5-0.9-3c-2-0.5-2.5-1.6-1.4-3.4c1-1.8,0.5-2.7-1.5-2.8c-2-0.1-2.7-1.1-2.1-3c0.6-1.6,0.1-2.5-1.2-2.5
			c-0.2,0-0.5,0-0.8,0.1c-0.3,0.1-0.6,0.1-0.8,0.1c-1.4,0-2.1-0.9-1.9-2.6C70,7.7,69.6,7,68.7,7c-0.4,0-0.8,0.1-1.3,0.3
			c-0.5,0.2-1,0.3-1.4,0.3c-1,0-1.6-0.7-1.8-2.2c-0.1-1.3-0.6-2-1.3-2c-0.4,0-0.9,0.2-1.5,0.6c-0.6,0.4-1.2,0.6-1.7,0.6
			c-0.8,0-1.4-0.6-1.8-1.9c-0.4-1.1-0.8-1.7-1.5-1.7c-0.5,0-1,0.3-1.6,0.9c-0.6,0.7-1.2,1-1.8,1c-0.7,0-1.3-0.5-1.8-1.5
			c-0.5-0.9-1-1.4-1.6-1.4c-0.5,0-1,0.4-1.6,1.3c-0.6,0.9-1.2,1.4-1.9,1.4c-0.6,0-1.2-0.4-1.8-1.1c-0.6-0.7-1.1-1-1.6-1
			c-0.6,0-1.1,0.5-1.5,1.6c-0.4,1.2-1,1.8-1.8,1.8c-0.5,0-1.1-0.2-1.7-0.7c-0.6-0.5-1.1-0.7-1.6-0.7c-0.7,0-1.2,0.6-1.3,1.9
			C34.6,6.1,34,6.8,33,6.8c-0.4,0-0.9-0.1-1.4-0.4c-0.5-0.2-1-0.4-1.4-0.4c-0.9,0-1.3,0.7-1.2,2.2c0.1,1.7-0.5,2.5-1.8,2.5
			c-0.3,0-0.6,0-1-0.1c-0.4-0.1-0.7-0.1-1-0.1c-1.2,0-1.6,0.8-1.2,2.4c0.6,2-0.2,2.9-2.2,2.9c0,0,0,0-0.1,0c0,0,0,0-0.1,0
			c-2,0-2.5,0.9-1.6,2.7c1,1.8,0.4,2.9-1.6,3.3c-2,0.4-2.4,1.4-1,3c1.3,1.6,1,2.8-0.9,3.6c-1.9,0.8-2,1.9-0.4,3.1
			c1.6,1.3,1.6,2.5-0.1,3.7c-1.7,1.2-1.6,2.2,0.3,3.1c1.8,0.9,2.1,2.1,0.7,3.6c-1.4,1.5-1.1,2.5,0.9,3c2,0.5,2.5,1.6,1.4,3.4
			c-1,1.8-0.5,2.7,1.5,2.8c2,0.1,2.7,1.1,2.1,3c-0.6,1.6-0.1,2.5,1.2,2.5c0.2,0,0.5,0,0.8-0.1c0.3-0.1,0.6-0.1,0.8-0.1
			c1.4,0,2.1,0.9,1.9,2.6c-0.2,1.5,0.2,2.2,1.2,2.2c0.4,0,0.8-0.1,1.3-0.3c0.5-0.2,1-0.3,1.4-0.3c1,0,1.6,0.7,1.8,2.2
			c0.1,1.3,0.6,2,1.3,2c0.4,0,0.9-0.2,1.5-0.6c0.6-0.4,1.2-0.6,1.7-0.6c0.8,0,1.4,0.6,1.8,1.9c0.4,1.1,0.8,1.7,1.5,1.7
			c0.5,0,1-0.3,1.6-0.9c0.6-0.7,1.2-1,1.8-1c0.7,0,1.3,0.5,1.8,1.5c0.5,0.9,1,1.4,1.6,1.4c0.5,0,1-0.4,1.6-1.3
			c0.6-0.9,1.2-1.4,1.9-1.4c0.6,0,1.2,0.4,1.8,1.1c0.6,0.7,1.1,1,1.6,1c0.6,0,1.1-0.5,1.5-1.6c0.4-1.2,1-1.8,1.8-1.8
			c0.5,0,1.1,0.2,1.7,0.7c0.6,0.5,1.1,0.7,1.6,0.7c0.7,0,1.2-0.6,1.3-1.9c0.2-1.4,0.8-2.1,1.8-2.1c0.4,0,0.9,0.1,1.4,0.4
			c0.5,0.2,1,0.4,1.4,0.4c0.9,0,1.3-0.7,1.2-2.2c-0.1-1.7,0.5-2.5,1.8-2.5c0.3,0,0.6,0,1,0.1c0.4,0.1,0.7,0.1,1,0.1
			c1.2,0,1.6-0.8,1.2-2.4c-0.6-2,0.2-2.9,2.2-2.9c0,0,0,0,0.1,0c0,0,0,0,0.1,0c2,0,2.5-0.9,1.6-2.7c-1-1.8-0.4-2.9,1.6-3.3
			c2-0.4,2.4-1.4,1-3c-1.3-1.6-1-2.8,0.9-3.6C82.8,39.2,83,38.1,81.4,36.9z M80.8,30.9c0.8,0.4,0.9,0.7,0.9,0.7c0,0,0,0.3-0.8,0.8
			c-0.2,0.1-0.3,0.3-0.5,0.4c0-0.7-0.1-1.4-0.2-2.1C80.4,30.7,80.6,30.8,80.8,30.9z M16.8,37.6c-0.8-0.4-0.9-0.7-0.9-0.7
			c0,0,0-0.3,0.8-0.8c0.2-0.1,0.3-0.2,0.5-0.4c0,0.7,0.1,1.4,0.2,2.1C17.2,37.7,17,37.6,16.8,37.6z M17.3,31.2
			c-0.1-0.1-0.3-0.3-0.5-0.4c-0.7-0.6-0.7-0.8-0.7-0.8l0,0c0,0,0.1-0.3,0.9-0.6c0.2-0.1,0.4-0.2,0.6-0.3
			C17.5,29.8,17.4,30.5,17.3,31.2z M79.4,24.3c0.9,0.2,1,0.5,1,0.5c0,0,0,0,0,0c0,0,0,0.3-0.6,0.9c-0.2,0.2-0.3,0.3-0.4,0.5
			c-0.2-0.7-0.4-1.4-0.6-2.1C78.9,24.2,79.1,24.3,79.4,24.3z M76.6,18.2c0.9,0,1.1,0.2,1.1,0.2c0,0,0.1,0.3-0.4,1.1
			c-0.1,0.2-0.2,0.4-0.3,0.6c-0.3-0.7-0.7-1.3-1.1-2C76.2,18.1,76.4,18.2,76.6,18.2z M72.7,12.7c0.2,0,0.5-0.1,0.7-0.1
			c0.3,0,0.4,0.1,0.5,0.1c0,0,0.1,0.3-0.2,1.1c-0.1,0.2-0.1,0.5-0.2,0.7c-0.5-0.6-1-1.2-1.5-1.7C72.2,12.8,72.4,12.8,72.7,12.7z
			 M67.7,8.2C68.2,8,68.5,8,68.7,8c0.1,0,0.1,0,0.1,0h0c0,0,0.2,0.2,0.1,1.1c0,0.3,0,0.5,0,0.8c-0.6-0.5-1.2-1-1.9-1.4
			C67.2,8.4,67.4,8.3,67.7,8.2z M61.9,4.9c0.6-0.4,0.9-0.4,1-0.4c0,0,0,0,0,0h0c0,0,0.2,0.2,0.3,1.1c0,0.3,0.1,0.5,0.1,0.8
			c-0.7-0.4-1.4-0.7-2.1-1C61.4,5.1,61.7,5,61.9,4.9z M55.5,2.8c0.6-0.6,0.9-0.6,0.9-0.6c0,0,0.3,0.1,0.5,1c0.1,0.3,0.2,0.5,0.3,0.7
			c-0.8-0.2-1.5-0.4-2.3-0.5C55.1,3.2,55.3,3,55.5,2.8z M48.8,2.1c0.4-0.7,0.7-0.8,0.8-0.8c0,0,0.3,0.1,0.7,0.9
			c0.1,0.2,0.3,0.5,0.4,0.7c-0.6,0-1.3-0.1-1.9-0.1c-0.1,0-0.3,0-0.4,0C48.5,2.5,48.7,2.3,48.8,2.1z M42.1,2.8c0.3-0.8,0.6-1,0.6-1
			c0,0,0.3,0,0.9,0.7c0.2,0.2,0.4,0.4,0.6,0.6c-0.8,0.1-1.6,0.3-2.3,0.4C41.9,3.3,42,3,42.1,2.8z M35.7,4.8c0.1-0.9,0.4-1.1,0.3-1.1
			c0,0,0,0,0,0c0.1,0,0.3,0,1,0.5c0.2,0.2,0.4,0.3,0.7,0.4C37,5,36.3,5.3,35.6,5.6C35.6,5.4,35.7,5.1,35.7,4.8z M30,7.1
			c0,0,0,0,0.1,0c0.1,0,0.4,0,1,0.3c0.3,0.1,0.5,0.2,0.7,0.3C31.2,8,30.5,8.5,29.9,9c0-0.2,0-0.5,0-0.8C29.9,7.3,30,7.1,30,7.1z
			 M24.8,11.6c0,0,0.1-0.1,0.4-0.1c0.2,0,0.5,0,0.8,0.1c0.3,0.1,0.5,0.1,0.8,0.1c-0.6,0.5-1.1,1.1-1.6,1.7c0-0.2-0.1-0.5-0.2-0.7
			C24.7,11.8,24.8,11.6,24.8,11.6z M20.6,17.1c0,0,0.2-0.2,1.1-0.2l0,0h0.1c0.2,0,0.5,0,0.7,0c-0.4,0.6-0.8,1.3-1.2,1.9
			c-0.1-0.2-0.2-0.4-0.3-0.6C20.5,17.3,20.6,17.1,20.6,17.1z M18.2,24.3c-0.6-0.7-0.5-1-0.6-1c0,0,0.2-0.2,1-0.4
			c0.2,0,0.4-0.1,0.7-0.2c-0.3,0.7-0.5,1.4-0.7,2.1C18.5,24.6,18.4,24.4,18.2,24.3z M18.2,44.1c-0.9-0.2-1-0.5-1-0.5
			c0,0,0-0.3,0.6-0.9c0.1-0.1,0.3-0.3,0.4-0.4c0.2,0.7,0.4,1.3,0.6,2C18.6,44.2,18.4,44.2,18.2,44.1z M20.9,50.3
			c-0.9,0-1.1-0.2-1.1-0.2c0,0-0.1-0.3,0.4-1.1c0.1-0.2,0.2-0.3,0.3-0.5c0.3,0.6,0.6,1.2,1,1.8C21.3,50.3,21.1,50.3,20.9,50.3z
			 M24.9,55.7c-0.2,0-0.5,0.1-0.7,0.1c-0.3,0-0.4-0.1-0.5-0.1c0,0-0.1-0.3,0.2-1.1c0.1-0.2,0.1-0.4,0.2-0.5c0.4,0.5,0.9,1.1,1.3,1.6
			C25.2,55.7,25,55.7,24.9,55.7z M29.9,60.2c-0.5,0.2-0.8,0.2-0.9,0.2c-0.1,0-0.1,0-0.1,0h0c0,0-0.2-0.2-0.1-1.1c0-0.2,0-0.4,0-0.5
			c0.5,0.4,1.1,0.8,1.6,1.2C30.2,60.1,30,60.2,29.9,60.2z M35.7,63.6c-0.6,0.4-0.9,0.4-1,0.4c0,0,0,0,0,0h0c0,0-0.2-0.2-0.3-1.1
			c0-0.2,0-0.3-0.1-0.5c0.6,0.3,1.2,0.6,1.8,0.9C36,63.4,35.8,63.5,35.7,63.6z M42.1,65.7c-0.6,0.6-0.9,0.6-0.9,0.6
			c0,0-0.3-0.1-0.5-1c-0.1-0.2-0.1-0.3-0.2-0.5c0.6,0.2,1.3,0.3,1.9,0.5C42.3,65.5,42.2,65.6,42.1,65.7z M48.7,66.4
			c-0.5,0.8-0.7,0.8-0.7,0.8c0,0-0.3-0.1-0.7-0.9c-0.1-0.1-0.2-0.3-0.3-0.4c0.6,0,1.2,0,1.8,0c0.1,0,0.2,0,0.2,0
			C48.9,66.1,48.8,66.3,48.7,66.4z M55.4,65.7c-0.3,0.8-0.6,1-0.6,1c0,0-0.3,0-0.9-0.7c-0.1-0.1-0.2-0.2-0.3-0.4
			c0.7-0.1,1.3-0.2,2-0.4C55.5,65.4,55.5,65.5,55.4,65.7z M61.8,63.6c-0.1,0.9-0.4,1.1-0.3,1.1c0,0,0,0,0,0c-0.1,0-0.3,0-1-0.5
			c-0.1-0.1-0.3-0.2-0.4-0.3c0.6-0.2,1.2-0.5,1.9-0.8C61.9,63.3,61.8,63.5,61.8,63.6z M67.5,61.4c0,0,0,0-0.1,0c-0.1,0-0.4,0-1-0.3
			C66.3,61,66.1,61,66,60.9c0.6-0.4,1.1-0.8,1.7-1.2c0,0.2,0,0.3,0,0.5C67.7,61.2,67.5,61.4,67.5,61.4z M72.8,56.9
			c0,0-0.1,0.1-0.4,0.1c-0.2,0-0.5,0-0.8-0.1c-0.2,0-0.4-0.1-0.5-0.1c0.5-0.5,1-1,1.4-1.5c0,0.2,0.1,0.3,0.1,0.5
			C72.9,56.6,72.8,56.9,72.8,56.9z M76.9,51.4c0,0-0.2,0.2-1.1,0.2l0,0l-0.1,0c-0.2,0-0.3,0-0.5,0c0.4-0.6,0.7-1.2,1.1-1.8
			c0.1,0.2,0.1,0.3,0.2,0.5C77,51.1,76.9,51.4,76.9,51.4z M79.3,44.2c0.6,0.7,0.5,1,0.6,1c0,0-0.2,0.2-1,0.4c-0.2,0-0.4,0.1-0.5,0.1
			c0.2-0.6,0.5-1.3,0.7-2C79.1,43.9,79.2,44.1,79.3,44.2z M48.8,65c-16.9,0-30.7-13.7-30.7-30.7c0-16.9,13.7-30.7,30.7-30.7
			s30.7,13.7,30.7,30.7C79.4,51.3,65.7,65,48.8,65z M80.6,39.1c-0.2,0.1-0.4,0.2-0.5,0.3c0.1-0.7,0.2-1.4,0.3-2.1
			c0.1,0.1,0.3,0.3,0.4,0.4c0.7,0.6,0.7,0.8,0.7,0.8c0,0,0,0,0,0C81.5,38.5,81.4,38.7,80.6,39.1z"/>
	</g>
</g>
<g id="Ellipse_11">
	<g>
		<path class="st0" d="M48.9,18c5.9,0,11.1,3.2,13.9,7.9H64C61,20.6,55.4,17,48.9,17s-12.1,3.6-15.1,8.9H35C37.8,21.1,43,18,48.9,18
			z M48.9,50.5c-5.9,0-11.1-3.2-13.9-7.9h-1.1c2.9,5.3,8.6,8.9,15.1,8.9S61,47.9,64,42.6h-1.1C60,47.3,54.8,50.5,48.9,50.5z"/>
	</g>
</g>
<g id="Shape_24">
	<g>
		<path class="st0" d="M69.6,27.6H28c-3.7,0-6.6,3-6.6,6.6s3,6.6,6.6,6.6h41.6c3.7,0,6.6-3,6.6-6.6S73.3,27.6,69.6,27.6z M69.6,39.9
			H28c-3.1,0-5.7-2.5-5.7-5.7s2.5-5.7,5.7-5.7h41.6c3.1,0,5.7,2.5,5.7,5.7S72.7,39.9,69.6,39.9z"/>
	</g>
</g>
<g id="Shape_25_copy">
	<g>
		<path class="st0" d="M71.3,33.9l-1.1-0.2l-0.5-0.9l-0.5,0.9l-1.1,0.2l0.7,0.8l-0.1,1.1l1-0.5l1,0.5l-0.1-1.1L71.3,33.9z
			 M28.4,33.7l-0.5-0.9l-0.5,0.9l-1.1,0.2l0.7,0.8l-0.1,1.1l1-0.5l1,0.5l-0.1-1.1l0.7-0.8L28.4,33.7z"/>
	</g>
</g>
<g id="Ellipse_12">
	<g>
		<path class="st0" d="M26.8,42.6h-0.5c1.3,3.5,3.4,6.6,6,9.2l0.3-0.4C30,48.9,28,46,26.8,42.6z M26.3,25.9h0.5
			c1.3-3.3,3.3-6.2,5.8-8.6l-0.3-0.4C29.7,19.3,27.6,22.4,26.3,25.9z M70.7,25.9h0.5c-1.3-3.5-3.5-6.6-6.2-9.1l-0.3,0.4
			C67.4,19.5,69.4,22.5,70.7,25.9z M70.8,42.6c-1.3,3.4-3.3,6.5-5.9,8.9l0.3,0.4c2.7-2.5,4.8-5.7,6.1-9.3H70.8z"/>
	</g>
</g>
<text transform="matrix(1 0 0 1 32.6714 36.1267)" class="st1 st2 st3">Scrappr</text>
<g>
	<g>
		<path class="st1" d="M35.3,13.2c0.1,0.1,0.2,0.3,0.3,0.4c-0.3,0.3-0.7,0.6-1,0.9c0.3,0.3,0.6,0.6,0.9,0.9c0.3-0.3,0.6-0.6,1-0.9
			c0.1,0.1,0.2,0.3,0.3,0.4c-0.3,0.3-0.6,0.5-0.9,0.8c0.4,0.4,0.8,0.9,1.2,1.3c-0.1,0.1-0.2,0.2-0.4,0.4c-1-1-1.9-1.9-2.9-2.9
			C34.3,14,34.8,13.6,35.3,13.2z"/>
		<path class="st1" d="M38.7,15.6c-0.1,0.1-0.3,0.2-0.4,0.3c-0.8-1.1-1.7-2.1-2.5-3.2c0.2-0.1,0.3-0.2,0.5-0.4
			C37.1,13.5,37.9,14.6,38.7,15.6z"/>
		<path class="st1" d="M40.2,14.6c-0.7-0.5-1.4-1.1-2.1-1.5c0.4,0.7,0.9,1.4,1.3,2c-0.1,0.1-0.3,0.2-0.4,0.3
			c-0.8-1.1-1.5-2.2-2.3-3.3c0.1-0.1,0.3-0.2,0.4-0.3c0.8,0.5,1.5,1,2.2,1.5c-0.4-0.7-0.8-1.4-1.2-2.1c0.2-0.1,0.4-0.2,0.5-0.3
			c0.7,1.2,1.3,2.4,2,3.5C40.5,14.5,40.3,14.6,40.2,14.6z"/>
		<path class="st1" d="M40.9,14.3c-0.6-1.2-1.3-2.4-1.9-3.6c0.3-0.1,0.6-0.3,0.8-0.4c0.7-0.3,1.2-0.1,1.5,0.6
			c0.2,0.5,0.4,1.1,0.6,1.6c0.3,0.7,0.2,1.2-0.4,1.5C41.4,14,41.1,14.1,40.9,14.3z M39.8,10.9c0.4,0.9,0.9,1.8,1.3,2.7
			c0.1,0,0.2-0.1,0.3-0.1c0.1-0.1,0.2-0.1,0.3-0.2c0-0.1,0-0.3-0.1-0.6c-0.2-0.5-0.5-1-0.7-1.6c-0.1-0.3-0.3-0.4-0.4-0.4
			c-0.1,0-0.3,0-0.4,0.1C40,10.8,39.9,10.8,39.8,10.9z"/>
		<path class="st1" d="M43.1,9c0.8-0.2,1.7-0.4,2.5-0.6c0,0.2,0.1,0.3,0.1,0.5c-0.3,0.1-0.6,0.1-1,0.2c0.2,1.2,0.5,2.3,0.7,3.5
			c-0.2,0-0.3,0.1-0.5,0.1c-0.3-1.1-0.5-2.3-0.8-3.4c-0.3,0.1-0.6,0.2-1,0.2C43.2,9.4,43.1,9.2,43.1,9z"/>
		<path class="st1" d="M48.2,12.2c-0.2,0-0.3,0-0.5,0c0-0.4-0.1-0.8-0.1-1.2c0-0.4-0.2-0.5-0.6-0.5c-0.1,0-0.2,0-0.3,0
			c0.1,0.6,0.1,1.1,0.2,1.7c-0.2,0-0.3,0-0.5,0.1c-0.2-1.3-0.4-2.7-0.6-4c0.3,0,0.6-0.1,0.9-0.1c0.8-0.1,1.2,0.3,1.2,1.1
			c0,0.4-0.1,0.7-0.2,0.9c0,0,0,0,0,0c0,0,0,0,0,0c0.2,0.2,0.3,0.4,0.4,0.8C48.2,11.4,48.2,11.8,48.2,12.2z M46.7,10.1
			c0.1,0,0.2,0,0.3,0c0.1,0,0.2,0,0.3-0.1c0,0,0.1-0.1,0.1-0.1c0.1-0.1,0.1-0.3,0.1-0.5c0-0.3-0.1-0.4-0.2-0.5
			c-0.1-0.1-0.2-0.1-0.4-0.1c-0.1,0-0.2,0-0.4,0C46.6,9.3,46.7,9.7,46.7,10.1z"/>
		<path class="st1" d="M50,11.1c-0.2,0-0.5,0-0.7,0c-0.1,0.4-0.2,0.8-0.3,1.1c-0.2,0-0.3,0-0.5,0c0.2-1.4,0.6-2.7,0.9-4.1
			c0.2,0,0.3,0,0.5,0c0.3,1.4,0.5,2.7,0.7,4.1c-0.2,0-0.3,0-0.5,0C50.2,11.9,50.1,11.5,50,11.1z M49.5,10.6c0.2,0,0.3,0,0.5,0
			c-0.1-0.3-0.1-0.7-0.2-1C49.6,9.9,49.6,10.3,49.5,10.6z"/>
		<path class="st1" d="M50.8,12.3c0.1-1.3,0.3-2.7,0.4-4c0.3,0,0.6,0.1,0.9,0.1C52.9,8.5,53.2,9,53,9.7c-0.1,0.6-0.2,1.1-0.3,1.7
			c-0.1,0.7-0.5,1.1-1.2,1C51.3,12.4,51.1,12.3,50.8,12.3z M51.7,8.9c-0.1,1-0.2,2-0.4,3c0.1,0,0.2,0,0.3,0c0.1,0,0.2,0,0.3-0.1
			c0.1-0.1,0.2-0.2,0.2-0.5c0.1-0.6,0.2-1.1,0.3-1.7c0.1-0.3,0-0.5-0.1-0.6C52.3,9,52.2,8.9,52,8.9C51.9,8.9,51.8,8.9,51.7,8.9z"/>
		<path class="st1" d="M55.5,9.1c-0.1,0.2-0.1,0.3-0.2,0.5c-0.4-0.1-0.8-0.2-1.2-0.3c-0.1,0.4-0.2,0.8-0.3,1.2
			c0.4,0.1,0.8,0.2,1.2,0.3c-0.1,0.2-0.1,0.3-0.2,0.5c-0.4-0.1-0.8-0.2-1.1-0.3c-0.1,0.4-0.2,0.8-0.3,1.2c0.4,0.1,0.7,0.2,1.1,0.3
			c-0.1,0.2-0.1,0.3-0.2,0.5c-0.5-0.2-1-0.3-1.5-0.4c0.3-1.3,0.6-2.6,0.8-4C54.2,8.8,54.8,8.9,55.5,9.1z"/>
		<path class="st1" d="M56.1,13.7c0.5-1.2,1.1-2.5,1.6-3.7c0.3,0.1,0.5,0.2,0.8,0.4c0.4,0.2,0.6,0.4,0.6,0.7c0.1,0.2,0,0.5-0.2,0.9
			c-0.2,0.3-0.4,0.5-0.6,0.6c0,0,0,0-0.1,0c0,0,0,0.1,0,0.1c0.1,0.2,0,0.5-0.2,0.9c-0.2,0.3-0.4,0.5-0.6,0.6
			c-0.2,0.1-0.5,0.1-0.8-0.1C56.5,13.9,56.3,13.8,56.1,13.7z M58,10.7c-0.2,0.4-0.3,0.8-0.5,1.1c0.1,0,0.2,0.1,0.3,0.1
			C57.8,12,57.9,12,58,12c0.1,0,0.1,0,0.1,0c0.1,0,0.2-0.2,0.3-0.4c0.1-0.3,0.2-0.4,0.1-0.5c-0.1-0.1-0.2-0.2-0.3-0.3
			C58.2,10.7,58.1,10.7,58,10.7z M57.2,12.3c-0.2,0.4-0.4,0.8-0.5,1.1c0.1,0,0.2,0.1,0.2,0.1c0.1,0.1,0.2,0.1,0.3,0.1
			c0.1,0,0.2-0.2,0.4-0.4c0.1-0.3,0.2-0.4,0.1-0.5c0-0.1-0.1-0.2-0.3-0.2C57.4,12.3,57.3,12.3,57.2,12.3z"/>
		<path class="st1" d="M59.8,11c0.2,0.1,0.3,0.2,0.5,0.3c-0.5,0.8-1,1.7-1.5,2.5c-0.1,0.2-0.2,0.4-0.1,0.5c0,0.1,0.1,0.2,0.2,0.2
			c0.1,0,0.1,0.1,0.2,0.1c0.1,0,0.2-0.1,0.4-0.3c0.5-0.8,1.1-1.6,1.6-2.5c0.2,0.1,0.3,0.2,0.5,0.3c-0.6,0.8-1.1,1.6-1.7,2.4
			c-0.2,0.3-0.4,0.4-0.6,0.5c-0.2,0.1-0.4,0.1-0.7-0.1c-0.3-0.2-0.4-0.4-0.4-0.6c0-0.2,0-0.5,0.2-0.8C58.8,12.7,59.3,11.9,59.8,11z"
			/>
		<path class="st1" d="M62.2,14.5c0.6-0.2,1.1-0.3,1.7-0.5c0.2,0.2,0.3,0.3,0.5,0.5c-0.8,0.2-1.6,0.4-2.4,0.6
			c-0.4,0.5-0.9,1-1.3,1.5c-0.1-0.1-0.3-0.2-0.4-0.3c0.4-0.5,0.8-1,1.3-1.5c0.1-0.8,0.2-1.6,0.2-2.5c0.2,0.1,0.4,0.3,0.6,0.4
			C62.3,13.3,62.3,13.9,62.2,14.5z"/>
	</g>
</g>
<g>
	<g>
		<path class="st1" d="M35.9,52.6c0.3-0.3,0.5-0.4,0.8-0.4c0.1,0,0.2,0,0.3,0c0.1,0,0.3,0.1,0.4,0.2c0.3,0.3,0.3,0.5,0.3,0.7
			c0,0.2-0.1,0.5-0.4,0.8c-0.4,0.4-0.7,0.9-1.1,1.3c-0.2,0.3-0.5,0.4-0.7,0.5c-0.2,0-0.5,0-0.9-0.3c-0.3-0.3-0.4-0.6-0.4-0.8
			c0-0.3,0.1-0.5,0.4-0.8C35,53.4,35.4,53,35.9,52.6z M35,54.2c-0.2,0.2-0.3,0.4-0.2,0.5c0,0.1,0.1,0.2,0.2,0.3
			c0.1,0.1,0.2,0.1,0.3,0.2c0.1,0,0.3,0,0.5-0.3c0.4-0.4,0.8-0.9,1.1-1.3c0.2-0.2,0.3-0.4,0.2-0.5c0-0.1-0.1-0.2-0.2-0.2
			c-0.1-0.1-0.1-0.1-0.3-0.1c-0.1,0-0.3,0.1-0.5,0.3C35.8,53.4,35.4,53.8,35,54.2z"/>
		<path class="st1" d="M37.2,57.4c0.1-0.9,0.3-1.8,0.5-2.6c-0.5,0.7-1,1.3-1.5,2c-0.2-0.1-0.3-0.2-0.5-0.4c0.8-1.1,1.7-2.1,2.5-3.2
			c0.1,0.1,0.2,0.2,0.3,0.3c-0.2,0.8-0.4,1.7-0.6,2.6c0.5-0.7,0.9-1.4,1.4-2c0.1,0.1,0.3,0.2,0.4,0.3c-0.7,1.1-1.5,2.3-2.2,3.4
			C37.5,57.6,37.3,57.5,37.2,57.4z"/>
		<path class="st1" d="M41.5,55.2c-0.1,0.2-0.2,0.3-0.2,0.5c-0.3-0.2-0.7-0.3-1-0.5c-0.2,0.4-0.4,0.7-0.6,1.1
			c0.3,0.2,0.7,0.4,1.1,0.6c-0.1,0.2-0.2,0.3-0.2,0.5c-0.4-0.2-0.7-0.4-1.1-0.6c-0.2,0.4-0.4,0.7-0.6,1.1c0.4,0.2,0.8,0.4,1.1,0.6
			c-0.1,0.2-0.2,0.3-0.2,0.5c-0.6-0.3-1.1-0.6-1.7-0.9c0.7-1.2,1.4-2.3,2.1-3.5C40.6,54.7,41,55,41.5,55.2z"/>
		<path class="st1" d="M43,60.2c0-0.7,0-1.4,0-2c-0.2,0.6-0.4,1.2-0.6,1.8c-0.2-0.1-0.4-0.1-0.6-0.2c0.5-1.3,0.9-2.5,1.4-3.8
			c0.1,0,0.3,0.1,0.4,0.1c-0.1,1-0.1,2-0.1,3c0.6-0.8,1.1-1.7,1.6-2.5c0.1,0,0.3,0.1,0.4,0.1c-0.3,1.3-0.6,2.6-0.9,3.9
			c-0.2,0-0.4-0.1-0.6-0.1c0.2-0.6,0.3-1.2,0.5-1.9c-0.4,0.6-0.7,1.1-1.1,1.7C43.3,60.3,43.1,60.2,43,60.2z"/>
		<path class="st1" d="M46.9,59.9c-0.2,0-0.5-0.1-0.7-0.1c-0.2,0.4-0.3,0.7-0.5,1.1c-0.2,0-0.4-0.1-0.6-0.1c0.6-1.2,1.2-2.5,1.7-3.8
			c0.1,0,0.3,0,0.4,0.1c0.1,1.4,0.2,2.8,0.5,4.1c-0.2,0-0.4,0-0.6-0.1C46.9,60.7,46.9,60.3,46.9,59.9z M46.3,59.3
			c0.2,0,0.3,0.1,0.5,0.1c0-0.3-0.1-0.7-0.1-1C46.6,58.7,46.5,59,46.3,59.3z"/>
		<path class="st1" d="M49.4,61.2c-0.4-0.8-0.7-1.7-0.9-2.5c-0.1,0.8-0.1,1.6-0.2,2.4c-0.2,0-0.4,0-0.6,0c0.1-1.3,0.3-2.7,0.4-4
			c0.1,0,0.3,0,0.4,0c0.2,0.8,0.5,1.7,0.9,2.5c0-0.8,0-1.6,0.1-2.4c0.2,0,0.3,0,0.5,0c0,1.3,0,2.7,0,4
			C49.7,61.2,49.5,61.2,49.4,61.2z"/>
		<path class="st1" d="M50.3,59.8c0.2,0,0.4,0,0.5,0c0,0.1,0,0.2,0,0.3c0,0.2,0.1,0.4,0.2,0.5c0,0,0.1,0,0.1,0.1c0.1,0,0.1,0,0.2,0
			c0.2,0,0.3-0.1,0.4-0.3c0.1-0.1,0.1-0.3,0-0.4c0-0.2-0.1-0.3-0.2-0.4c-0.1-0.1-0.2-0.1-0.4-0.2c0,0-0.1,0-0.1,0
			c-0.1,0-0.3-0.1-0.5-0.3c-0.2-0.2-0.3-0.5-0.4-0.8c0-0.3,0.1-0.6,0.2-0.8c0.2-0.2,0.4-0.3,0.6-0.4c0.4,0,0.6,0.1,0.7,0.3
			c0.2,0.2,0.3,0.5,0.3,0.8c0,0.1,0,0.2,0,0.3c-0.2,0-0.3,0-0.5,0.1c0-0.1,0-0.2,0-0.3c0-0.3-0.1-0.5-0.2-0.5
			c-0.1-0.1-0.2-0.1-0.3-0.1c-0.2,0-0.3,0.1-0.3,0.3c-0.1,0.1-0.1,0.3-0.1,0.4c0,0.2,0.1,0.3,0.2,0.4c0.1,0.1,0.2,0.2,0.4,0.2
			c0,0,0.1,0,0.1,0c0.1,0,0.3,0.1,0.5,0.2c0.3,0.2,0.4,0.4,0.4,0.8c0.1,0.6-0.2,1.2-0.9,1.2c-0.7,0-1.1-0.4-1.1-1.1
			C50.3,60,50.3,59.9,50.3,59.8z"/>
		<path class="st1" d="M53.8,56.8c0.7-0.1,1.4-0.3,2-0.6c0.1,0.2,0.1,0.3,0.2,0.5c-0.3,0.1-0.5,0.2-0.8,0.3c0.3,1.1,0.7,2.3,1,3.4
			c-0.2,0.1-0.4,0.1-0.6,0.2c-0.3-1.1-0.6-2.3-0.9-3.4c-0.3,0.1-0.5,0.1-0.8,0.2C53.8,57.1,53.8,56.9,53.8,56.8z"/>
		<path class="st1" d="M59.3,59.1c-0.2,0.1-0.4,0.2-0.5,0.2c-0.2-0.4-0.3-0.7-0.5-1.1c-0.1-0.3-0.4-0.4-0.7-0.3
			c-0.1,0-0.2,0.1-0.3,0.1c0.2,0.5,0.4,1.1,0.6,1.6c-0.2,0.1-0.4,0.1-0.5,0.2c-0.4-1.3-0.9-2.5-1.3-3.8c0.2-0.1,0.5-0.2,0.7-0.3
			c0.6-0.2,1,0,1.4,0.7c0.2,0.3,0.2,0.6,0.1,0.9c0,0,0,0,0,0c0,0,0,0,0,0c0.3,0.1,0.5,0.3,0.6,0.6C59,58.4,59.2,58.8,59.3,59.1z
			 M57.1,57.6c0.1,0,0.2-0.1,0.3-0.1c0.1-0.1,0.2-0.1,0.3-0.2c0-0.1,0.1-0.1,0.1-0.1c0-0.1,0-0.3-0.1-0.5c-0.1-0.2-0.2-0.4-0.3-0.4
			c-0.1,0-0.2,0-0.4,0c-0.1,0-0.2,0.1-0.3,0.1C56.8,56.8,56.9,57.2,57.1,57.6z"/>
		<path class="st1" d="M60.7,57.2c-0.2,0.1-0.4,0.3-0.7,0.4c0.1,0.4,0.2,0.8,0.3,1.1c-0.2,0.1-0.4,0.2-0.5,0.3c-0.3-1.4-0.6-2.7-1-4
			c0.1-0.1,0.2-0.1,0.3-0.2c0.9,1,1.9,2,3,2.9c-0.2,0.1-0.4,0.2-0.5,0.3C61.2,57.7,61,57.4,60.7,57.2z M59.9,57
			c0.1-0.1,0.3-0.2,0.4-0.2c-0.2-0.2-0.5-0.5-0.7-0.7C59.7,56.4,59.8,56.7,59.9,57z"/>
		<path class="st1" d="M61.4,56.4c0.2-0.1,0.3-0.2,0.5-0.3c0,0.1,0.1,0.1,0.1,0.2c0.1,0.2,0.3,0.3,0.4,0.3c0,0,0.1,0,0.1,0
			c0.1,0,0.1,0,0.2-0.1c0.2-0.1,0.2-0.3,0.2-0.4c0-0.1-0.1-0.3-0.2-0.4c-0.1-0.2-0.3-0.2-0.4-0.2c-0.1,0-0.3,0-0.4,0.1
			c0,0-0.1,0-0.1,0c-0.1,0-0.4,0.1-0.6,0c-0.3,0-0.6-0.2-0.7-0.5c-0.2-0.3-0.3-0.6-0.2-0.8c0-0.3,0.1-0.5,0.4-0.6
			c0.3-0.2,0.6-0.2,0.8-0.2c0.2,0.1,0.5,0.2,0.7,0.5c0.1,0.1,0.1,0.1,0.2,0.2c-0.1,0.1-0.3,0.2-0.4,0.3c-0.1-0.1-0.1-0.1-0.2-0.2
			c-0.2-0.2-0.3-0.3-0.5-0.3c-0.1,0-0.2,0.1-0.3,0.1c-0.2,0.1-0.2,0.3-0.2,0.4c0,0.2,0.1,0.3,0.2,0.4c0.1,0.2,0.2,0.2,0.4,0.2
			c0.1,0,0.3,0,0.4,0c0,0,0.1,0,0.1,0c0.1,0,0.3-0.1,0.6-0.1c0.3,0,0.6,0.1,0.8,0.4c0.4,0.5,0.4,1.1-0.2,1.6
			c-0.6,0.4-1.2,0.3-1.6-0.3C61.5,56.5,61.4,56.5,61.4,56.4z"/>
		<path class="st1" d="M63.8,53.4c-0.4-0.4-0.8-0.9-1.2-1.3c0.1-0.1,0.2-0.2,0.4-0.4c1,1,1.9,1.9,2.9,2.9c-0.1,0.1-0.3,0.3-0.4,0.4
			c-0.4-0.4-0.8-0.9-1.2-1.3c-0.2,0.2-0.4,0.4-0.6,0.6c0.4,0.4,0.8,0.9,1.2,1.3c-0.2,0.1-0.3,0.3-0.5,0.4c-0.9-1-1.7-2.1-2.6-3.1
			c0.1-0.1,0.3-0.2,0.4-0.3c0.4,0.4,0.8,0.9,1.2,1.3C63.4,53.8,63.6,53.6,63.8,53.4z"/>
	</g>
</g>
</svg>
