
<?xml version="1.0" encoding="utf-8"?>
<!-- Generator: Adobe Illustrator 19.1.0, SVG Export Plug-In . SVG Version: 6.00 Build 0)  -->
<svg version="1.1" id="Layer_1" xmlns="http://www.w3.org/2000/svg" xmlns:xlink="http://www.w3.org/1999/xlink" x="0px" y="0px"
	 viewBox="0 0 960 560" style="enable-background:new 0 0 960 560;" xml:space="preserve">
<style type="text/css">
	.st0{fill-rule:evenodd;clip-rule:evenodd;fill:#B30000;}
	.st1{fill-rule:evenodd;clip-rule:evenodd;}
	.st2{fill:#FFFFFF;}
	.st3{fill:#FFFFFF;stroke:#231F20;stroke-width:10;stroke-miterlimit:10;}
</style>
<g>
	<path class="st0" d="M898.8,123.3L506.3,75.3c-6.8-0.8-16.5-1.3-26.7-1.3c-10.2,0-19.9,0.5-26.7,1.3L60.4,123.4
		c-0.4,0.2-1.5,1.4-1.6,2l0,327.3c0.1,0.5,1.2,1.7,1.7,1.8l392.5,48.1c6.8,0.8,16.5,1.3,26.7,1.3c10.2,0,19.9-0.5,26.7-1.3
		l392.6-48.1c0.5-0.2,1.5-1.4,1.6-2l0-327.3C900.4,124.7,899.4,123.5,898.8,123.3z"/>
	<path class="st1" d="M902.9,90.5L510.4,42.4c-16.9-2.1-44.6-2.1-61.5,0L56.3,90.5c-16.9,2.1-30.7,17.7-30.7,34.7V258
		c0,17,0,44.9,0,61.9v132.8c0,17,13.8,32.7,30.7,34.7l392.6,48.1c16.9,2.1,44.6,2.1,61.5,0l392.6-48.1c16.9-2.1,30.7-17.7,30.7-34.7
		V319.9c0-17,0-44.9,0-61.9V125.2C933.7,108.2,919.9,92.5,902.9,90.5z M905.5,452.7c0,2.8-3.2,6.4-6,6.8l-392.6,48.1
		c-7,0.9-16.9,1.4-27.3,1.4c-10.4,0-20.3-0.5-27.3-1.4L59.8,459.4c-2.8-0.3-6-3.9-6-6.8V125.2c0-2.8,3.2-6.4,6-6.8l392.6-48.1
		c7-0.9,16.9-1.3,27.3-1.3c10.4,0,20.3,0.5,27.3,1.3l392.6,48.1c2.8,0.3,6,3.9,6,6.8V452.7z"/>
</g>
<g>
	<path class="st2" d="M223.2,254.9c-5.1-4.3-11.1-6.5-17.9-6.6c-2.7,0-5.2,0.7-7.6,2c-2.6,1.4-3.9,3.5-4,6.4c0.1,2.8,1.6,5,4.5,6.4
		c2.7,1.4,5.3,2.5,7.8,3.2l7,2c7.1,1.9,13,4.9,17.4,9.1c4.5,4.3,6.8,10.5,6.9,18.4c0,5-0.7,9.9-2.1,14.7c-1.5,4.7-4.2,8.9-8.3,12.5
		c-8.3,6.4-17.8,9.5-28.5,9.5c-13-0.2-24.7-4-35.3-11.6l11.3-21.3c3.4,2.9,7.1,5.3,10.9,7.2c3.9,2.1,8.1,3.2,12.6,3.2
		c3.2,0,6.2-0.8,8.8-2.5c2.6-1.6,3.9-4.2,4-7.6c0-1.9-0.6-3.5-1.7-4.8c-1.2-1.3-2.7-2.4-4.5-3.2c-3.9-1.6-7.5-2.8-10.8-3.5
		c-4-1.1-7.5-2.4-10.7-3.8c-3.3-1.3-6.1-3-8.5-5c-2.4-2-4.2-4.5-5.4-7.8c-1.4-3.2-2.1-7.1-2.1-11.9c0.1-10.4,3.4-18.6,9.9-24.6
		c6.3-6,14.6-9.1,24.9-9.2c11.1,0.1,21.7,2.9,31.6,8.4L223.2,254.9z"/>
	<path class="st2" d="M321.5,262.7c-5.8-7.3-13.3-11-22.5-11c-8,0.1-14.3,2.7-19,8c-4.8,5.2-7.3,11.8-7.4,19.8
		c0.1,8,2.6,14.4,7.5,19.4c4.7,5.2,11.1,7.8,19.3,7.9c8.9-0.1,16.3-3.6,22.1-10.6v31.5c-4.1,1.4-7.9,2.4-11.4,3.2
		c-3.6,1-7.3,1.5-11.2,1.5c-14.1-0.1-26.5-5-37.1-14.8c-10.7-10.3-15.9-23-15.9-38.1c0.1-14.3,4.9-26.6,14.6-36.9
		c10.4-10.8,22.9-16.3,37.5-16.5c8.1,0.1,16,1.8,23.5,5.1V262.7z"/>
	<path class="st2" d="M423.4,329.7H391l-24.5-39.2h-0.3v39.2h-26.4V227.8h39.1c10.3,0,18.6,2.5,25.1,7.5c6.5,5,9.8,13,9.9,23.9
		c0,7.1-1.8,13.4-5.5,18.7c-3.7,5.2-9,8.6-16.1,10.1L423.4,329.7z M366.2,273.5h2.6c2.3,0,4.5-0.2,6.7-0.5c2.1-0.3,4-0.9,5.8-1.8
		c1.8-0.9,3.2-2.2,4.3-3.9c1.1-1.6,1.7-3.8,1.7-6.5c0-2.8-0.6-5.1-1.7-6.8c-1.1-1.7-2.5-3-4.3-3.8c-1.8-0.9-3.8-1.6-5.8-1.9
		c-1.1-0.2-2.2-0.3-3.2-0.3c-1.1,0-2.3,0-3.4,0h-2.6V273.5z"/>
	<path class="st2" d="M457.3,312l-6.8,17.7h-27.2l37.9-101.9h28l37.2,101.9H499l-6.5-17.7H457.3z M475.2,259.2H475l-10.6,32.6h21.3
		L475.2,259.2z"/>
	<path class="st2" d="M537.3,227.8h40c11,0,19.9,2.6,26.5,7.9c6.7,5.4,10,14,10.2,25.7c-0.3,23.3-12.1,34.8-35.5,34.6h-14.8v33.8
		h-26.4V227.8z M563.7,274.5h4.5c2.4,0,4.8-0.1,7.2-0.3c2.3-0.1,4.4-0.5,6.1-1.3c1.8-0.8,3.2-2.1,4.3-3.8c1-1.6,1.5-4,1.5-7
		c0-3.2-0.5-5.8-1.5-7.6c-0.9-1.7-2.2-3-4-3.8c-1.7-0.8-3.8-1.3-6.1-1.4c-2.4-0.1-4.9-0.2-7.5-0.2h-4.5V274.5z"/>
	<path class="st2" d="M626.6,227.8h40c11,0,19.9,2.6,26.5,7.9c6.7,5.4,10,14,10.2,25.7c-0.3,23.3-12.1,34.8-35.5,34.6H653v33.8
		h-26.4V227.8z M653,274.5h4.5c2.4,0,4.8-0.1,7.2-0.3c2.3-0.1,4.4-0.5,6.1-1.3c1.8-0.8,3.2-2.1,4.3-3.8c1-1.6,1.5-4,1.5-7
		c0-3.2-0.5-5.8-1.5-7.6c-0.9-1.7-2.2-3-4-3.8c-1.7-0.8-3.8-1.3-6.1-1.4c-2.4-0.1-4.9-0.2-7.5-0.2H653V274.5z"/>
	<path class="st2" d="M799.6,329.7h-32.4l-24.5-39.2h-0.3v39.2H716V227.8h39.1c10.3,0,18.6,2.5,25.1,7.5c6.5,5,9.8,13,9.9,23.9
		c0,7.1-1.8,13.4-5.5,18.7c-3.7,5.2-9,8.6-16.1,10.1L799.6,329.7z M742.4,273.5h2.6c2.3,0,4.5-0.2,6.7-0.5c2.1-0.3,4-0.9,5.8-1.8
		c1.8-0.9,3.2-2.2,4.3-3.9c1.1-1.6,1.7-3.8,1.7-6.5c0-2.8-0.6-5.1-1.7-6.8c-1.1-1.7-2.5-3-4.3-3.8c-1.8-0.9-3.8-1.6-5.8-1.9
		c-1.1-0.2-2.2-0.3-3.2-0.3c-1.1,0-2.3,0-3.4,0h-2.6V273.5z"/>
</g>
<line class="st3" x1="133" y1="389" x2="826" y2="389"/>
</svg>
